<svg width="16" height="6" viewBox="0 0 16 6" fill="none" xmlns="http://www.w3.org/2000/svg">
    <path d="M5.7204 1.25327C5.72864 1.24904 5.73631 1.24541 5.74398 1.24117C6.17112 1.03724 6.69376 0.933765 7.29817 0.933765C7.93334 0.933765 8.47961 1.04935 8.92097 1.27748C9.24926 1.44692 9.45458 1.64964 9.53528 1.88261V1.01727H11.4172V0.124097H9.53528V0.989437C9.45458 0.75646 9.24926 0.553742 8.92097 0.384304C8.47903 0.156169 7.93281 0.0405884 7.29817 0.0405884C6.66357 0.0405884 6.17112 0.144066 5.74398 0.347996C5.73578 0.351627 5.72807 0.355863 5.7204 0.360099V0.123492H0.0180664V1.01667H5.7204V1.25327Z"
          fill="#FF0000"/>
    <path d="M13.4688 1.01726H14.4235L15.9771 0.124084H13.4688L11.4172 1.34222V2.23539L13.4688 1.01726Z"
          fill="#FF0000"/>
    <path d="M9.53519 4.38907C9.42702 4.48952 9.29251 4.58272 9.13111 4.66804C8.63374 4.93004 8.02492 5.06259 7.32273 5.06259C6.66286 5.06259 6.09576 4.944 5.63791 4.7104C5.47762 4.62868 5.34199 4.53672 5.23164 4.43566L4.8457 4.46652L4.88636 4.71645C4.94562 5.08072 5.19873 5.37968 5.63791 5.60359C6.09576 5.83713 6.66286 5.95577 7.32273 5.95577C8.02492 5.95577 8.63374 5.82322 9.13111 5.56122C9.29251 5.4765 9.42702 5.38331 9.53519 5.28222V5.89586H11.4171V5.00268H9.53519V4.38907Z"
          fill="#0000FF"/>
    <path d="M3.80551 5.00327H1.92358V5.89645H3.80551V5.00327Z" fill="#0000FF"/>
    <path d="M1.9236 1.96793H0.0180664V2.8611H1.9236V1.96793Z" fill="#0000FF"/>
    <path d="M7.58257 1.89411C7.50133 1.85054 7.42228 1.83299 7.31028 1.83299C7.19061 1.83299 7.10661 1.85236 7.02042 1.89895C6.94249 1.94131 6.83981 2.03208 6.79205 2.22512L6.74756 2.40605L7.08958 2.42057C7.35201 2.41816 7.47717 2.37277 7.54908 2.33828C7.621 2.30378 7.71655 2.24267 7.71655 2.1053C7.71655 1.96794 7.61609 1.91166 7.58257 1.89411Z"
          fill="#0000FF"/>
    <path d="M9.29045 2.67232C9.24818 2.70923 9.20204 2.74372 9.1521 2.77761C9.16253 2.78245 9.17297 2.78729 9.1834 2.79213C9.31845 2.85688 9.43593 2.93434 9.53528 3.02329V2.33586C9.49082 2.45689 9.40958 2.56944 9.29045 2.67292V2.67232Z"
          fill="#0000FF"/>
    <path d="M6.71558 3.70103C6.86655 4.16335 7.18882 4.16335 7.31014 4.16335C7.42268 4.16335 7.57422 4.15065 7.74878 4.05262C7.90198 3.96608 7.97662 3.85111 7.97662 3.69983C7.97662 3.56185 7.91237 3.45898 7.78008 3.38455C7.66313 3.31919 7.544 3.29075 7.38152 3.29075C7.33761 3.29075 7.23439 3.29499 7.04222 3.32525L6.22371 3.45414L6.43616 2.49198L4.88746 2.32738L4.96433 2.07504C4.97587 2.03813 4.98903 2.00243 5.0033 1.96672H3.80542V2.8599H4.87538L4.88639 2.92888C4.92424 3.16004 5.03954 3.36518 5.23167 3.54128L6.62775 3.42993L6.71616 3.69983L6.71558 3.70103Z"
          fill="#0000FF"/>
    <path d="M11.7241 3.46201L11.4172 3.6381V4.53127L11.7241 4.35518L13.5435 5.89646H15.8668L14.76 5.00327H13.5435L11.7241 3.46201Z"
          fill="#0000FF"/>
    <path d="M14.4235 1.01727H13.4688L11.4172 2.2354V1.01727H9.53528V1.88261C9.45458 1.64963 9.24926 1.44692 8.92097 1.27748C8.47903 1.04934 7.93281 0.933762 7.29817 0.933762C6.66357 0.933762 6.17112 1.03724 5.74398 1.24117C5.73578 1.2448 5.72807 1.24904 5.7204 1.25327V1.01667H0.0180664V1.96733H1.9236V5.00209H3.80553V1.96733H5.00341C4.98914 2.00243 4.97541 2.03873 4.96444 2.07565L4.88757 2.32799L6.43627 2.49258L6.22382 3.45475L7.04233 3.32585C7.2345 3.2956 7.33714 3.29136 7.38163 3.29136C7.54411 3.29136 7.66324 3.3192 7.78019 3.38516C7.91248 3.45959 7.97673 3.56246 7.97673 3.70043C7.97673 3.85172 7.90204 3.96729 7.74889 4.05323C7.57433 4.15186 7.42279 4.16396 7.31025 4.16396C7.18893 4.16396 6.86666 4.16396 6.71569 3.70164L6.62732 3.43175L5.23124 3.5431L4.8453 3.57396L4.88592 3.82388C4.92382 4.05504 5.03912 4.26018 5.23124 4.43627C5.34159 4.53733 5.47718 4.62932 5.63751 4.711C6.09536 4.94459 6.66246 5.06318 7.32233 5.06318C8.02448 5.06318 8.6333 4.93068 9.1307 4.66864C9.29211 4.58332 9.42658 4.49073 9.53475 4.38968V5.00328H11.4167V3.63871L11.723 3.46261L13.5429 5.00387H15.8662L13.0279 2.71285L15.9766 1.01788H14.4229L14.4235 1.01727ZM7.54906 2.33828C7.47714 2.37277 7.35198 2.41815 7.08955 2.42058L6.74753 2.40605L6.79202 2.22512C6.83978 2.03208 6.94242 1.94131 7.0204 1.89895C7.10658 1.85175 7.19058 1.83299 7.31025 1.83299C7.42225 1.83299 7.50077 1.85054 7.58254 1.89411C7.61549 1.91166 7.71652 1.96552 7.71652 2.1053C7.71652 2.24508 7.62097 2.30378 7.54906 2.33828ZM9.53528 3.02329C9.43594 2.93433 9.31846 2.85688 9.1834 2.79213C9.17297 2.78728 9.16254 2.78244 9.15211 2.7776C9.20204 2.74432 9.24819 2.70922 9.29046 2.67231C9.40959 2.56883 9.49136 2.45628 9.53528 2.33525V3.02268V3.02329Z"
          fill="#FFFF00"/>
</svg>